<svg xmlns="http://www.w3.org/2000/svg" xml:lang="en" height="131.69199999999998pt" width="342.58pt" viewBox="-5.24 -39.620000000000005 342.58 131.69199999999998"><path d="M 194.4 -0.0 a 4.05 4.05 0 1 1 8.099999999999994 0.0" style="stroke:black;fill:none;stroke-width:2.0;" /><path d="M 202.5 -0.0 a 4.05 4.05 0 1 1 8.099999999999994 0.0" style="stroke:black;fill:none;stroke-width:2.0;" /><path d="M 210.6 -0.0 a 4.05 4.05 0 1 1 8.099999999999994 0.0" style="stroke:black;fill:none;stroke-width:2.0;" /><path d="M 218.7 -0.0 a 4.05 4.05 0 1 1 8.100000000000023 0.0" style="stroke:black;fill:none;stroke-width:2.0;" /><path d="M 0.0,-0.0 L 2.6999999999999997,-8.1 L 8.1,8.1 L 13.499999999999998,-8.1 L 18.899999999999995,8.1 L 24.299999999999997,-8.1 L 29.699999999999996,8.1 L 32.4,-0.0" style="stroke:black;fill:none;stroke-width:2.0;stroke-linecap:round;stroke-linejoin:round;" /><path d="M 32.4,-0.0 L 113.39999999999999,-0.0 L 194.39999999999998,-0.0" style="stroke:black;fill:none;stroke-width:2.0;stroke-linecap:round;stroke-linejoin:round;" /><path d="M 194.39999999999998,-0.0 M 226.79999999999998,-0.0" style="stroke:black;fill:none;stroke-width:2.0;stroke-linecap:round;stroke-linejoin:round;" /><path d="M 226.79999999999998,-0.0 L 275.4,-0.0 L 324.0,-0.0" style="stroke:black;fill:none;stroke-width:2.0;stroke-linecap:round;stroke-linejoin:round;" /><path d="M 324.0,-0.0 L 324.0,16.2 L 324.0,32.4" style="stroke:black;fill:none;stroke-width:2.0;stroke-linecap:round;stroke-linejoin:round;" /><path d="M 324.0,32.4 M 332.09999999999997,32.4 L 315.9,32.4 M 332.09999999999997,38.232000000000006 L 315.9,38.232 M 324.0,38.232" style="stroke:black;fill:none;stroke-width:2.0;stroke-linecap:round;stroke-linejoin:round;" /><path d="M 324.0,38.232 L 324.0,54.431999999999995 L 324.0,70.63199999999999" style="stroke:black;fill:none;stroke-width:2.0;stroke-linecap:round;stroke-linejoin:round;" /><path d="M 324.0,70.63199999999999 L 275.4,70.63199999999999 L 226.79999999999998,70.63199999999998" style="stroke:black;fill:none;stroke-width:2.0;stroke-linecap:round;stroke-linejoin:round;" /><path d="M 226.79999999999998,70.63199999999998 L 226.79999999999998,78.73199999999997 L 226.79999999999998,86.83199999999998" style="stroke:black;fill:none;stroke-width:2.0;stroke-linecap:round;stroke-linejoin:round;" /><text x="16.2" y="-24.64" fill="black" font-size="14.0" font-family="sans" text-anchor="middle" transform="rotate(0 16.2 -13.44)"><tspan x="16.2" dy="11.200000000000001">R</tspan></text><text x="210.6" y="-20.58997993388339" fill="black" font-size="14.0" font-family="sans" text-anchor="middle" transform="rotate(0 210.6 -9.389979933883389)"><tspan x="210.6" dy="11.200000000000001">L</tspan></text><text x="312.66" y="27.615999999999993" fill="black" font-size="14.0" font-family="sans" text-anchor="end" transform="rotate(0 312.66 33.215999999999994)"><tspan x="312.66" dy="11.200000000000001">C</tspan></text></svg>